<svg width="13" height="10" viewBox="0 0 13 10" fill="none" xmlns="http://www.w3.org/2000/svg">
<path d="M10.3 4.24C10.38 3.94667 10.4667 3.54667 10.56 3.04C10.6933 2.44 10.8 1.98667 10.88 1.68C10.96 1.37333 11.0667 1.11333 11.2 0.899999C11.3467 0.66 11.4733 0.5 11.58 0.42C11.7 0.339999 11.8267 0.299999 11.96 0.299999C12.6533 0.299999 13 0.566666 13 1.1C13 1.36667 12.8933 1.86667 12.68 2.6C11.9733 4.73333 11.4667 6.38667 11.16 7.56C11.0267 8.05333 10.8267 8.43333 10.56 8.7C10.2933 8.95333 9.93333 9.08 9.48 9.08C9.25333 9.08 9.02 8.97333 8.78 8.76C8.55333 8.53333 8.36667 8.26 8.22 7.94L8 7.4C7.62667 6.45333 7.34667 5.72667 7.16 5.22C6.98667 4.7 6.87333 4.23333 6.82 3.82L6.64 4.46C6.32 5.60667 5.98667 6.67333 5.64 7.66C5.46667 8.16667 5.25333 8.53333 5 8.76C4.74667 8.97333 4.42 9.08 4.02 9.08C3.78 9.08 3.56667 9.02667 3.38 8.92C3.20667 8.81333 3.04 8.63333 2.88 8.38C2.66667 8.03333 2.46 7.56667 2.26 6.98C2.07333 6.39333 1.8 5.48 1.44 4.24C1.26667 3.70667 1.10667 3.14667 0.96 2.56C0.813333 1.96 0.74 1.54 0.74 1.3C0.74 1.02 0.813333 0.8 0.96 0.64C1.10667 0.48 1.32 0.4 1.6 0.4C1.96 0.4 2.21333 0.473333 2.36 0.619999C2.50667 0.753333 2.64 0.96 2.76 1.24C2.82667 1.72 2.97333 2.4 3.2 3.28L3.64 5.16C3.66667 5.30667 3.74667 5.61333 3.88 6.08L4.04 6.66C4.33333 6.03333 4.58 5.43333 4.78 4.86C4.98 4.28667 5.2 3.58 5.44 2.74C5.45333 2.68667 5.58667 2.22667 5.84 1.36C6.01333 1.08 6.16667 0.873333 6.3 0.74C6.43333 0.593333 6.56667 0.52 6.7 0.52C6.96667 0.52 7.19333 0.606666 7.38 0.78C7.58 0.94 7.72667 1.14 7.82 1.38C7.98 1.9 8.12 2.37333 8.24 2.8C8.29333 2.97333 8.41333 3.39333 8.6 4.06C8.8 4.71333 8.98 5.26667 9.14 5.72C9.3 6.17333 9.43333 6.49333 9.54 6.68L10.3 4.24Z" fill="#FFAA00"/>
</svg>
